<svg width="60" height="60" viewBox="0 0 60 60" fill="none" xmlns="http://www.w3.org/2000/svg">
<path d="M53.4609 29.5193H6.04687C4.78125 29.5193 3.75 30.4568 3.75 31.6287V33.9724C3.75 35.1443 4.78125 36.0818 6.04687 36.0818H7.26562V43.9333C7.26562 48.4333 10.0781 52.0896 13.5234 52.0896H45.5391C48.9844 52.0896 51.7969 48.4333 51.7969 43.9333V36.0818H53.4844C54.75 36.0818 55.7812 35.1443 55.7812 33.9724V31.6287C55.7812 30.4568 54.75 29.5193 53.4609 29.5193ZM49.9219 33.1052V34.2068H9.14062V33.1052C9.14062 32.5193 9.21094 31.9568 9.30469 31.3943H49.6875C49.8281 31.9568 49.9219 32.4021 49.9219 33.1052ZM6.04687 34.2068C5.78906 34.2068 5.625 34.0662 5.625 33.9724V31.6287C5.625 31.5349 5.78906 31.3943 6.04687 31.3943H7.40625C7.3125 31.9568 7.26562 32.5193 7.26562 33.1052V34.2068H6.04687ZM49.9219 43.9333C49.9219 47.4021 47.9531 50.2146 45.5391 50.2146H13.5C11.0859 50.2146 9.11719 47.4021 9.11719 43.9333V36.0818H49.8984V43.9333H49.9219ZM53.9062 33.9724C53.9062 34.0662 53.7422 34.2068 53.4844 34.2068H51.7969V33.1052C51.7969 32.4255 51.7266 31.8865 51.6094 31.3943H53.4609C53.7188 31.3943 53.8828 31.5349 53.8828 31.6287V33.9724H53.9062Z" fill="#F09804"/>
<path d="M15.5627 19.5818C16.2658 21.8318 18.8674 23.0037 20.1565 23.3084C20.2268 23.3318 20.2971 23.3318 20.3674 23.3318C20.7893 23.3318 21.1643 23.0506 21.2815 22.6053C21.3987 22.1131 21.094 21.5975 20.5783 21.4803C19.4768 21.2225 17.719 20.285 17.344 19.0193C17.0862 18.2225 17.4377 17.3084 18.3283 16.3006C19.5705 14.9178 20.0862 13.5115 19.8987 12.0818C19.594 9.83183 17.5315 8.47245 17.4612 8.42558C17.0158 8.14433 16.4533 8.26152 16.1721 8.70683C15.8908 9.12871 16.008 9.71464 16.4533 9.99589C16.4768 9.99589 17.883 10.9568 18.0705 12.3631C18.1877 13.2068 17.8127 14.1209 16.969 15.0584C15.2346 16.9803 15.258 18.574 15.5627 19.5818Z" fill="#F09804"/>
<path d="M25.3359 19.5818C26.0391 21.8318 28.6406 23.0037 29.9297 23.3084C30 23.3318 30.0703 23.3318 30.1406 23.3318C30.5625 23.3318 30.9375 23.0506 31.0547 22.6053C31.1719 22.1131 30.8672 21.5975 30.3516 21.4803C29.25 21.2225 27.4922 20.285 27.1172 19.0193C26.8594 18.2225 27.2109 17.3084 28.1016 16.3006C29.3437 14.9178 29.8594 13.5115 29.6719 12.0818C29.3672 9.83183 27.3047 8.47245 27.2109 8.42558C26.7656 8.14433 26.2031 8.26152 25.9219 8.70683C25.6406 9.12871 25.7578 9.71464 26.2031 9.99589C26.2266 9.99589 27.6328 10.9568 27.8203 12.3631C27.9375 13.2068 27.5625 14.1209 26.7187 15.0584C25.0078 16.9803 25.0078 18.574 25.3359 19.5818Z" fill="#F09804"/>
<path d="M34.7811 19.5818C35.4843 21.8318 38.0858 23.0037 39.3749 23.3084C39.4452 23.3318 39.5155 23.3318 39.5858 23.3318C40.0077 23.3318 40.3827 23.0506 40.4999 22.6053C40.6171 22.1131 40.3124 21.5975 39.7968 21.4803C38.6952 21.2225 36.9374 20.285 36.5624 19.0193C36.3046 18.2225 36.6561 17.3084 37.5468 16.3006C38.789 14.9178 39.3046 13.5115 39.1171 12.0818C38.8124 9.80839 36.7499 8.44902 36.6561 8.40214C36.2108 8.12089 35.6483 8.23808 35.3671 8.68339C35.0858 9.10527 35.203 9.6912 35.6483 9.97245C35.6718 9.97245 37.078 10.9334 37.2655 12.3396C37.3827 13.1834 37.0077 14.0975 36.164 15.035C34.453 16.9803 34.4765 18.574 34.7811 19.5818Z" fill="#F09804"/>
</svg>
