<svg width="120" height="120" viewBox="0 0 120 120" fill="none" xmlns="http://www.w3.org/2000/svg">
<path d="M60 120C26.8235 120 0 93.1765 0 60C0 26.8235 26.8235 0 60 0C93.1765 0 120 26.8235 120 60C120 93.1765 93.1765 120 60 120ZM60 7.05882C30.7059 7.05882 7.05882 30.7059 7.05882 60C7.05882 89.2941 30.7059 112.941 60 112.941C89.2941 112.941 112.941 89.2941 112.941 60C112.941 30.7059 89.2941 7.05882 60 7.05882Z" fill="#F09804" fill-opacity="0.9"/>
<path d="M42.353 90.7052V29.2934L95.2942 59.9993L42.353 90.7052ZM49.4119 41.2934V78.3523L81.1766 59.6464L49.4119 41.2934Z" fill="#F09804" fill-opacity="0.9"/>
</svg>
