<svg width="56" height="30" viewBox="0 0 56 30" fill="none" xmlns="http://www.w3.org/2000/svg">
<path d="M55.2119 5.76683C54.8413 5.00106 54.1744 4.45762 53.3592 4.2353C53.8039 3.44484 53.878 2.48146 53.4827 1.6416C53.1369 0.925241 52.5194 0.381796 51.7289 0.134776C50.9631 -0.0875416 50.148 -0.0381365 49.4069 0.307691C48.1965 0.875836 47.5296 2.30855 47.5296 3.56835C46.0721 4.2353 42.6386 5.79153 40.9341 6.58199C40.7612 6.55729 40.5636 6.53259 40.3413 6.53259C39.3038 6.53259 37.3771 6.82901 35.3021 7.24894C31.745 4.53173 27.521 3.07431 23.0746 3.07431C11.9587 3.07431 2.86841 12.214 2.49788 23.6016C1.21338 23.9228 0.25 25.0591 0.25 26.4177C0.25 28.0233 1.60861 29.3325 3.26364 29.3325H43.9231C45.5781 29.3325 46.9367 28.0233 46.9367 26.4177C46.9367 24.812 45.5781 23.5028 43.9231 23.5028H43.6761C43.5525 20.1434 42.6386 16.858 41.0576 13.9432L43.3055 12.1893C43.4537 12.0658 43.5772 11.8929 43.6514 11.6953C43.6514 11.6706 43.6761 11.5965 43.7008 11.4977C45.3805 10.7072 48.2459 9.34861 49.7033 8.65695C50.4691 9.91676 52.1735 10.4108 53.6309 9.71914C55.1625 9.00278 55.8788 7.22424 55.2119 5.76683ZM44.9112 26.4177C44.9112 26.9364 44.4418 27.3563 43.8737 27.3563H3.21424C2.64609 27.3563 2.17675 26.9364 2.17675 26.4177C2.17675 25.8989 2.64609 25.479 3.21424 25.479H43.8737C44.4418 25.479 44.9112 25.8989 44.9112 26.4177ZM41.6505 23.5028H4.42463C4.84456 13.2515 13.0456 5.05047 23.0252 5.05047C26.4588 5.05047 29.7194 5.98914 32.5849 7.79239C29.423 8.48404 26.5576 9.2004 26.3106 9.2498C26.2365 9.27451 25.446 9.64503 25.446 9.64503C23.1981 10.7072 20.9502 14.8819 22.5559 18.2907C23.7416 20.8103 26.7058 21.9713 28.9537 21.9713C29.7688 21.9713 30.5099 21.8231 31.0781 21.5514C31.3745 21.4032 31.6709 21.2303 31.9179 20.9832L39.4026 15.1783C40.7612 17.7226 41.527 20.5633 41.6505 23.5028ZM30.7075 19.427C30.6828 19.4517 30.6581 19.4517 30.6581 19.4764C30.5346 19.5752 30.4111 19.674 30.2629 19.7234C29.9418 19.8716 29.4971 19.9458 28.9784 19.9458C27.2987 19.9458 25.1743 19.0812 24.3838 17.4015C23.2722 15.0301 25.0261 12.0164 26.3353 11.3989L26.9281 11.1272C29.9665 10.3614 38.0193 8.50875 40.3166 8.50875C40.5142 8.50875 40.5883 8.53345 40.613 8.53345C41.1071 8.65695 41.4529 8.87927 41.6258 9.2251C41.8728 9.66974 41.8728 10.2626 41.8234 10.6825V10.7072C41.8234 10.7566 41.7987 10.806 41.7987 10.8554L30.7075 19.427ZM52.7417 7.9406C52.1488 8.21232 51.5066 8.0394 51.309 7.59477C51.2843 7.54537 51.0372 7.00192 51.0372 6.97722L50.642 6.01384L49.7033 6.45848C49.7033 6.45848 46.171 8.13822 43.7255 9.29921C43.6514 8.95338 43.5278 8.60755 43.3549 8.26173C43.2561 8.08881 43.1573 7.9406 43.0338 7.79239C45.4793 6.6808 49.0117 5.07517 49.0117 5.07517L49.8268 4.70464L49.5551 3.86477C49.4069 3.37074 49.7527 2.35795 50.2715 2.11093C50.5679 1.96272 50.889 1.93802 51.1855 2.03683C51.3337 2.08623 51.5807 2.20974 51.7289 2.48146C51.9265 2.9014 51.7042 3.44484 51.2102 3.74126L50.4691 4.2106L51.3584 6.38437L52.2476 6.16206C52.7664 6.03855 53.2851 6.21146 53.458 6.60669C53.6309 7.05133 53.3345 7.66888 52.7417 7.9406Z" fill="#F09804"/>
<path d="M8.35234 17.3655C7.80889 17.3655 7.36426 17.8101 7.36426 18.3536V18.6747C7.36426 19.2181 7.80889 19.6628 8.35234 19.6628C8.89578 19.6628 9.34042 19.2181 9.34042 18.6747V18.3536C9.34042 17.8101 8.89578 17.3655 8.35234 17.3655Z" fill="#F09804"/>
<path d="M11.5138 16.995V16.6739C11.5138 16.1304 11.0691 15.6858 10.5257 15.6858C9.98223 15.6858 9.5376 16.1304 9.5376 16.6739V16.995C9.5376 17.5384 9.98223 17.9831 10.5257 17.9831C11.0691 17.9831 11.5138 17.5384 11.5138 16.995Z" fill="#F09804"/>
<path d="M11.0691 19.0452C10.5257 19.0452 10.0811 19.4898 10.0811 20.0332V20.3544C10.0811 20.8978 10.5257 21.3425 11.0691 21.3425C11.6126 21.3425 12.0572 20.8978 12.0572 20.3544V20.0332C12.0572 19.4898 11.6126 19.0452 11.0691 19.0452Z" fill="#F09804"/>
</svg>
