<svg width="48" height="52" viewBox="0 0 48 52" fill="none" xmlns="http://www.w3.org/2000/svg">
<path d="M47.9976 25.6727C47.9976 25.4442 47.9976 25.1699 47.9747 24.8728C47.9519 24.3928 47.5405 24.0042 47.0605 24.0042H46.4434C46.192 17.4446 40.8437 12.1877 34.284 12.1877C31.0613 12.1877 28.1357 13.4676 25.9416 15.5247C25.4844 14.5876 24.7302 13.5819 23.6331 12.5305C22.4217 11.342 21.8046 10.1535 21.5761 9.05641H45.8948C46.3977 9.05641 46.8091 8.64501 46.8091 8.14217C46.8091 7.63934 46.3977 7.22793 45.8948 7.22793H21.4846C21.5761 6.17656 21.9418 5.35374 22.1703 4.91948L46.0091 2.3139C46.512 2.26818 46.8777 1.81106 46.8091 1.30823C46.7634 0.8054 46.3063 0.439704 45.8034 0.508272L11.4051 4.27951C10.9023 4.32522 10.5366 4.78234 10.6052 5.28518C10.6509 5.7423 11.0623 6.10799 11.5194 6.10799C11.5423 6.10799 11.588 6.10799 11.6108 6.10799L12.1365 6.06228C11.9994 6.42798 11.908 6.81653 11.8851 7.27365H11.5194C11.0166 7.27365 10.6052 7.68505 10.6052 8.18789C10.6052 8.69072 11.0166 9.10213 11.5194 9.10213H12.228C12.6622 10.1306 13.5079 11.0677 14.7878 11.9134C16.982 13.3762 16.8677 14.0619 16.8677 14.0847C16.822 14.359 16.1592 14.839 14.6278 15.1361C14.0107 14.999 13.3708 14.9304 12.7079 14.9304C7.70247 14.9304 3.61125 18.9759 3.47411 24.0042H0.937096C0.45712 24.0042 0.0457116 24.3928 0.0228557 24.8728C-3.49095e-07 25.1699 0 25.4213 0 25.6727C0 34.1523 5.75971 41.4891 14.0336 44.8032C12.9365 44.8489 12.068 45.7631 12.068 46.8602V49.443C12.068 50.5858 12.9822 51.5 14.125 51.5H32.5698C33.7126 51.5 34.6268 50.5858 34.6268 49.443V46.8602C34.6268 46.0374 34.1469 45.3289 33.4612 45.0089C42.0093 41.7862 47.9976 34.3351 47.9976 25.6727ZM34.3069 14.0162C39.8609 14.0162 44.3863 18.4502 44.6378 24.0042H43.3121C43.0378 19.2959 39.038 15.5475 34.1469 15.5475C29.2557 15.5475 25.233 19.2959 24.9816 24.0042H23.9759C24.0445 22.7243 24.3188 21.4901 24.7988 20.3701C25.5987 19.8216 26.1473 19.1359 26.353 18.3131C26.3987 18.1074 26.4444 17.9017 26.4672 17.6731C28.3414 15.4332 31.1527 14.0162 34.3069 14.0162ZM39.2895 24.0042C39.038 21.4444 36.821 19.433 34.124 19.433C31.427 19.433 29.21 21.4444 28.9585 24.0042H26.8329C27.1072 20.3016 30.2842 17.376 34.1697 17.376C38.0552 17.376 41.2322 20.3016 41.5065 24.0042H39.2895ZM37.4381 24.0042H30.787C31.0384 22.45 32.4327 21.2615 34.1012 21.2615C35.7925 21.2615 37.1867 22.45 37.4381 24.0042ZM24.5931 17.0789C24.1359 17.696 23.7245 18.3817 23.3588 19.0902C22.9017 19.3188 22.4217 19.4788 22.1246 19.5473C21.6446 19.6616 21.3475 20.1644 21.4618 20.6673C21.5761 21.0787 21.9418 21.3529 22.3532 21.3529C22.4217 21.3529 22.4674 21.3529 22.536 21.3301C22.3075 22.1986 22.1703 23.09 22.1475 24.0042H21.9418C21.896 22.0386 21.2332 20.2101 20.1361 18.7245C21.5761 18.1988 22.4903 17.3531 22.7417 16.3018C22.9931 15.2961 22.6274 14.2219 21.6903 13.0791C21.9189 13.3305 22.1475 13.6048 22.3989 13.8562C23.656 15.0904 24.4102 16.2103 24.5931 17.0789ZM21.5303 12.9191C21.1189 12.4391 20.5933 11.9363 19.9533 11.4106C18.9705 10.6106 18.3991 9.81066 18.1019 9.07927H19.7476C19.9304 10.2906 20.4561 11.5934 21.5303 12.9191ZM19.6562 7.25079H17.8048C17.8734 6.38226 18.2391 5.69658 18.4676 5.35374L20.0904 5.1709C19.9076 5.7423 19.7247 6.45083 19.6562 7.25079ZM14.285 5.78801L16.342 5.55945C16.1592 6.03942 16.0221 6.61082 15.9763 7.22793H13.6907C13.7593 6.61082 14.0793 6.08513 14.285 5.78801ZM15.7706 10.3592C15.1307 9.9478 14.6507 9.51353 14.3079 9.05641H16.1592C16.4792 10.2449 17.2563 11.5477 18.7876 12.8048C20.959 14.5876 21.0275 15.5247 20.9361 15.8446C20.799 16.3932 19.9761 16.896 18.7419 17.1931C18.2848 16.7817 17.782 16.4389 17.2563 16.1189C18.0334 15.6847 18.5134 15.1133 18.6505 14.4276C18.9248 13.1705 17.9877 11.8448 15.7706 10.3592ZM12.6851 16.7589C16.6849 16.7589 19.9533 19.9816 20.0904 24.0042H19.6104C19.4733 20.3473 16.3649 17.4217 12.5937 17.4217C8.79956 17.4217 5.714 20.3473 5.57686 24.0042H5.30259C5.41687 19.9816 8.68528 16.7589 12.6851 16.7589ZM16.6163 24.0042C16.4792 21.9243 14.6964 20.2787 12.5479 20.2787C10.3995 20.2787 8.61671 21.9243 8.47958 24.0042H7.38249C7.51962 21.3529 9.80522 19.2502 12.5708 19.2502C15.3364 19.2502 17.622 21.3529 17.7591 24.0042H16.6163ZM14.7878 24.0042H10.3309C10.468 22.93 11.428 22.1072 12.5708 22.1072C13.6907 22.1072 14.6507 22.93 14.7878 24.0042ZM32.5698 46.6317C32.7069 46.6317 32.7984 46.7231 32.7984 46.8602V49.443C32.7984 49.5801 32.7069 49.6715 32.5698 49.6715H14.125C13.9879 49.6715 13.8964 49.5801 13.8964 49.443V46.8602C13.8964 46.7231 13.9879 46.6317 14.125 46.6317H21.9646C22.6274 46.6774 23.3131 46.7002 23.9988 46.7002C24.6845 46.7002 25.3702 46.6774 26.033 46.6317H32.5698ZM25.9644 44.8032H22.0332C10.788 43.9347 1.9199 35.7751 1.82848 25.8327H46.1691C46.0777 35.7751 37.2096 43.9347 25.9644 44.8032Z" fill="#F09804"/>
</svg>
