<svg width="52" height="37" viewBox="0 0 52 37" fill="none" xmlns="http://www.w3.org/2000/svg">
<path d="M48.0797 28.0969C49.0931 27.2861 49.7012 26.2221 49.7012 25.006C49.7012 23.5365 48.7891 22.2444 47.3197 21.4083C48.7891 20.5723 49.7265 19.2802 49.7265 17.7854C49.7265 16.7973 49.3212 15.9106 48.6118 15.1505C48.7638 15.0999 48.8905 15.0492 49.0171 14.9478C50.6639 13.5291 51.5 12.0089 51.5 10.3621C51.5 7.42325 48.7131 4.7377 43.6714 2.81222C38.9337 1.01341 32.6505 0 25.9873 0C19.3241 0 13.041 0.988077 8.30328 2.81222C3.28689 4.76304 0.5 7.44858 0.5 10.3875C0.5 12.0343 1.33607 13.5544 2.98286 14.9732C3.10954 15.0999 3.28689 15.1759 3.4389 15.2012C2.72951 15.9359 2.32414 16.8227 2.32414 17.8107C2.32414 19.2802 3.23622 20.5723 4.70566 21.4083C3.23622 22.2444 2.29881 23.5365 2.29881 25.0313C2.29881 26.1967 2.88152 27.2355 3.84426 28.0462C2.27347 28.7556 1.15872 30.2504 1.15872 32.0238C1.15872 34.456 3.23621 36.4069 5.82042 36.4069H45.9009C48.4598 36.4069 50.5626 34.4307 50.5626 32.0238C50.5879 30.301 49.5745 28.8316 48.0797 28.0969ZM6.73249 27.2608L9.038 24.0179L10.2288 27.5902H8.83532C8.07526 27.5902 7.36587 27.4635 6.73249 27.2608ZM33.1826 15.2265L26.0887 20.1669L19.2228 15.2265H29.7623H33.1826ZM44.7861 22.5991L43.9247 25.5127C43.7981 25.2086 43.6714 24.93 43.57 24.6259C43.2154 23.7392 42.886 23.0045 42.658 22.4218H43.2153C43.7474 22.4218 44.2794 22.4978 44.7861 22.5991ZM38.2243 25.842L36.7548 22.4218H39.4911C39.263 23.0045 38.9843 23.7392 38.655 24.6513C38.503 25.0566 38.351 25.462 38.2243 25.842ZM27.6088 22.4218L25.7847 26.1207L24.2899 22.4218H27.6088ZM10.6341 22.4218H14.3078L11.9262 26.2474L10.6341 22.4218ZM15.9799 23.5618L17.7534 27.5902H13.4717L15.9799 23.5618ZM17.6773 22.4218H21.1483L19.3241 26.1967L17.6773 22.4218ZM22.6937 23.9165L24.1885 27.6155H20.9203L22.6937 23.9165ZM29.1289 23.9165L30.5477 27.5902H27.3301L29.1289 23.9165ZM30.725 22.4218H33.6386L32.0931 25.9687L30.725 22.4218ZM35.1841 23.9419L36.7548 27.5902H33.5879L35.1841 23.9419ZM41.0872 23.9165C41.5179 24.93 42.0499 26.2474 42.582 27.5902H39.7444C40.2258 26.2727 40.6818 24.9553 41.0872 23.9165ZM45.5462 27.1848L46.661 23.4098C47.2943 23.8659 47.6744 24.4232 47.6744 25.006C47.6744 25.8927 46.813 26.7034 45.5462 27.1848ZM43.2407 20.3949H43.19H35.1841H29.2809L36.7042 15.2265H43.2407C45.6222 15.2265 47.725 16.4426 47.725 17.8107C47.725 19.1788 45.6222 20.3949 43.2407 20.3949ZM2.52683 10.3875C2.52683 8.36066 4.90835 6.30849 9.038 4.7377C13.5477 3.0149 19.5775 2.0775 25.9873 2.0775C32.3972 2.0775 38.427 3.0149 42.9367 4.7377C47.0917 6.30849 49.4478 8.38599 49.4478 10.3875C49.4478 11.3249 48.9411 12.2623 47.9277 13.1997H43.2407H29.7623H16.0812H8.86066H4.04694C3.05887 12.2623 2.52683 11.3249 2.52683 10.3875ZM8.86066 15.2265H15.7265L22.8964 20.3949H8.86066C6.47914 20.3949 4.3763 19.1788 4.3763 17.8107C4.40164 16.4173 6.47914 15.2265 8.86066 15.2265ZM7.61923 22.5231L4.95902 26.2474C4.57899 25.8674 4.35097 25.4367 4.35097 25.006C4.35097 23.8659 5.76975 22.8525 7.61923 22.5231ZM45.9262 34.3547H5.84575C4.40164 34.3547 3.21088 33.2906 3.21088 31.9985C3.21088 30.7064 4.40164 29.6423 5.84575 29.6423H8.83532H43.2153H45.9516C47.3957 29.6423 48.5864 30.7064 48.5864 31.9985C48.5864 33.2906 47.3957 34.3547 45.9262 34.3547Z" fill="#F09804"/>
</svg>
